PathFileType	4	(X/Y/Z)	C:/Users/beibeiliu/ov580/test_trc/User1\sequence.8_training_dense_right.trc
DataRate	CameraRate	NumFrames	NumMarkers	Units	OrigDataRate	OrigDataStartFrame	OrigNumFrames
120	120	25	19	mm	120	253	289
Frame#	Time	ThumbCMC			ThumbMCP			ThumbIP			ThumbTip			IndexMCP			IndexPIP			IndexTip			MiddleMCP			MiddlePIP			MiddleTip			RingMCP			RingPIP			RingTip			PinkyMCP			PinkyPIP			PinkyTip			BackHand1			BackHand2			BackHand3	
		X0	Y0	Z0	X1	Y1	Z1	X2	Y2	Z2	X3	Y3	Z3	X4	Y4	Z4	X5	Y5	Z5	X6	Y6	Z6	X7	Y7	Z7	X8	Y8	Z8	X9	Y9	Z9	X10	Y10	Z10	X11	Y11	Z11	X12	Y12	Z12	X13	Y13	Z13	X14	Y14	Z14	X15	Y15	Z15	X16	Y16	Z16	X17	Y17	Z17	X18	Y18	Z18	
252	2.1	183.307	112.265	21.1315	183.755	132.164	0.228397	190.649	146.628	-17.848	196.613	160.382	-26.7913	150.604	98.4695	-54.6144	125.299	118.256	-41.5503	142.81	114.197	-8.88113	132.722	84.0673	-52.4224	110.674	105.151	-37.105	135.032	98.9351	-2.92412	116.374	72.9775	-40.3502	100.72	95.3764	-21.5076	124.607	86.5254	3.99339	107.363	61.4787	-27.383	97.0324	83.9217	-11.1734	120.435	74.74	11.7052	153.204	43.614	3.90718	157.773	46.1327	39.354	179.242	69.3297	13.116	
253	2.10833	186.618	111.089	20.4385	185.107	130.275	4.99967	199.136	146.131	-18.0472	209.145	159.615	-22.7552	155.87	104.657	-54.4078	130.186	123.091	-42.7656	143.211	118.138	-11.3163	136.846	88.2258	-52.5705	114.643	110.653	-34.6637	137.429	103.055	-2.80076	115.927	76.0896	-41.479	105.292	99.7031	-23.988	126.984	90.508	2.46563	105.57	62.7338	-26.3977	100.232	88.193	-14.7502	122.945	78.2937	9.83967	151.533	47.085	2.58346	161.341	48.9606	38.5438	180.6	69.2872	14.5272	
254	2.11667	186.317	111.234	25.1284	187.457	131.426	4.78872	200.12	144.508	-14.0551	211.527	158.149	-24.4231	154.864	107.546	-55.0608	132.833	123.719	-42.8318	151.065	119.81	-8.93807	139.815	91.4256	-52.4484	119	115.82	-35.9463	140.186	103.797	-2.89286	119.154	80.9545	-42.3194	108.462	105.918	-23.0694	129.94	92.5264	1.83328	105.601	66.017	-28.4372	106.72	93.005	-14.0426	125.075	80.612	5.08272	152.063	47.4982	5.00293	161.707	50.9735	35.8881	182.988	73.0976	15.7826	
255	2.125	189.896	114.305	28.6334	193.468	134.445	6.16219	206.82	149.855	-10.0116	219.261	162.983	-17.1984	161.52	111.655	-51.7743	136.359	132.191	-40.3072	152.94	122.581	-6.96016	139.947	97.7865	-52.5823	120.955	120.287	-35.1924	138.334	109.962	-3.44435	123.063	84.5989	-41.3339	110.213	110.37	-19.9015	129.735	97.9559	1.42174	107.697	71.0643	-29.4102	105.151	97.0654	-13.985	126.382	85.5552	5.18224	153.355	52.9719	0.859785	161.141	52.6416	39.2625	184.273	77.3536	14.1446	
256	2.13333	189.871	115.888	25.7193	192.717	138.636	9.4607	205.772	153.326	-7.59349	215.626	166.097	-12.6988	158.312	118.875	-50.336	136.2	138.108	-38.2949	150.693	126.79	-5.70108	140.029	100.766	-50.6988	119.898	124.956	-32.5246	141.003	113.866	-0.130207	123.451	96.3717	-42.4175	108.404	112.902	-20.1303	129.081	102.04	3.96207	108.041	79.7291	-30.6416	107.742	101.884	-12.5201	125.14	90.4753	7.5396	156.932	58.5965	0.843559	163.287	55.2822	34.9799	183.688	76.9689	16.6673	
257	2.14167	191.077	122.559	31.1673	190.057	143.293	13.4576	203.311	161.48	-0.648616	214.723	174.293	-8.60365	157.705	129.94	-47.6434	132.338	140.897	-30.1311	148.937	130.267	-3.11711	140.282	112.448	-50.1976	119.592	131.501	-30.7932	138.6	116.504	1.92963	122.964	100.839	-40.9683	108.582	118.636	-16.712	128.773	106.236	5.68534	109.388	83.5398	-28.6926	103.523	104.896	-12.3948	125.421	90.3152	9.78444	155.367	63.0626	-2.34759	163.196	57.852	33.6461	183.68	84.1262	16.352	
258	2.15	186.857	126.804	32.8328	192.181	152.421	16.3312	199.892	168.934	1.24978	211.484	184.354	-3.28927	154.402	132.388	-46.6123	127.962	145.422	-27.5192	143.017	133.076	-1.63621	135.517	114.179	-47.9519	116.829	136.533	-24.9078	137.138	119.165	4.02481	116.594	102.989	-39.6768	105.951	121.423	-14.0421	128.389	104.922	7.4878	112.736	84.82	-27.5511	100.083	105.739	-8.4144	125.823	93.8256	9.72367	159.304	66.9959	-1.79047	161.885	60.3301	31.9797	185.974	90.5107	14.0441	
259	2.15833	184.282	132.897	32.9762	182.648	156.877	17.362	191.214	176.009	3.76135	200.008	192.15	2.82498	148.72	141.91	-44.4907	123.394	149.722	-26.4527	141.16	139.026	3.17855	130.057	119.698	-46.9991	112.86	137.435	-24.2465	129.181	120.35	5.99242	120.98	105.404	-39.294	102.426	119.069	-16.3712	124.611	110.009	8.42565	108.984	86.1229	-29.9881	100.414	105.206	-6.69868	122.922	96.7431	12.3962	159.945	69.9641	-5.29746	164.4	64.0715	33.8755	185.473	99.4437	16.5999	
260	2.16667	178.768	139.109	35.5469	174.15	160.655	22.6901	183.275	183.232	8.39608	191.439	199.618	8.48416	140.879	141.142	-43.8859	115.331	145.601	-27.2029	134.507	138.836	4.19262	132.017	119.453	-45.5841	105.727	133.464	-24.6541	126.389	122.265	7.90716	118.285	105.757	-38.0412	100.147	118.487	-12.9484	122.62	107.443	11.1013	109.649	85.0842	-30.076	97.7677	101.052	-8.82288	120.86	94.4105	12.7587	161.247	74.2956	-1.73718	168.877	69.803	32.8363	183.418	102.455	12.3396	
261	2.175	172.404	140.082	35.7596	167.36	165.62	19.4899	172.637	187.2	3.87568	178.704	204.367	2.44576	137.79	142.72	-42.5982	110.02	148.642	-27.6099	126.279	137.563	4.34607	127.137	122.66	-46.2829	101.589	128.032	-23.4831	124.897	121.599	9.59977	115.202	103.569	-38.5314	96.0904	111.516	-14.7921	121.482	106.419	11.8993	115.78	81.5421	-28.7544	96.7593	96.9157	-8.36889	125.524	94.151	11.2792	164.207	77.6178	-4.59893	172.112	75.7253	31.6166	181.188	108.609	15.0196	
262	2.18333	168.557	144.834	32.8513	159.116	166.938	23.8321	163.986	189.987	9.68126	166.645	207.082	5.8129	131.238	143.802	-42.7492	105.62	140.721	-26.7581	121.473	134.527	5.21348	124.364	117.845	-45.7355	98.2686	124.404	-21.6577	119.979	117.991	8.16253	117.869	99.8526	-38.8402	96.7027	109.397	-13.0277	119.511	101.265	12.1192	115.512	79.9509	-29.3837	98.4299	93.4443	-10.0071	121.458	91.8412	11.7612	165.744	77.7342	-2.13705	176.113	75.1433	30.3299	181.44	111.423	11.6777	
263	2.19167	162.876	145.87	32.1203	152.525	167.391	21.3146	153.809	190.684	4.44236	155.765	208.616	5.68693	128.766	142.505	-43.2454	100.762	140.632	-26.6537	114.69	134.057	3.52347	126.029	115.128	-46.0795	97.5557	119.295	-26.5082	118.455	118.49	8.6853	118.437	97.384	-40.1501	95.0716	100.119	-15.0184	117.028	97.5155	10.166	120.076	74.7501	-30.5364	101.145	87.2372	-10.3295	124.53	90.6821	11.4355	169.786	82.4016	-2.93397	179.44	79.0892	31.3248	178.654	115.678	15.9937	
264	2.2	157.613	147.702	38.1325	143.654	164.262	23.1692	142.647	189.258	4.83446	139.769	205.119	3.01118	124.645	137.286	-43.9586	98.2393	133.543	-29.8588	112.57	126.963	1.59591	124.279	111.188	-46.7132	95.8252	110.656	-25.9228	119.35	111.243	8.31702	121.557	89.3266	-40.4211	97.4029	96.2534	-15.854	122.717	93.3351	9.78529	125.682	72.502	-30.7677	104.222	81.87	-11.6152	130.664	86.9233	9.19014	172.753	81.4714	-1.76566	180.921	83.5523	29.7304	177.381	118.549	16.3526	
265	2.20833	152.652	143.067	33.1438	137.672	163.593	19.784	133.572	186.891	3.87117	130.056	205.882	1.92382	123.461	131.047	-45.0614	95.2883	122.676	-31.2406	110.717	122.456	2.64994	121.526	107.404	-48.3678	96.5595	103.794	-27.6526	117.971	103.524	5.59	122.199	86.8352	-40.081	99.2147	85.0992	-13.8915	120.189	89.919	7.95459	127.198	64.8643	-32.2397	107.102	73.689	-14.3415	131.262	79.0014	10.2308	173.982	84.1208	-6.67752	185.272	85.3921	32.9326	176.721	121.454	14.9802	
266	2.21667	146.576	144.893	32.7189	129.263	157.393	19.4111	123.562	176.905	3.0367	117.521	200.515	1.57696	123.683	126.705	-44.7518	93.0886	115.155	-28.8661	109.492	114.869	1.23951	122.241	101.476	-48.3977	95.8791	96.3783	-26.9294	115.426	102.783	5.66638	124.861	84.2918	-41.3508	103.266	75.8064	-18.6661	124.926	85.2645	7.64458	136.399	65.0061	-31.4141	110.749	63.8589	-12.0515	133.696	79.9354	10.3197	178.23	86.7312	-5.02437	184.993	87.1674	27.9946	173.443	120.154	15.7645	
267	2.225	141.74	137.332	35.5576	122.76	152.571	17.3761	113.689	171.941	2.30946	105.19	189.618	-1.00149	117.528	125.743	-43.7277	94.9526	104.559	-32.2759	111.769	110.031	2.46217	122.924	100.012	-48.5813	98.8075	87.556	-27.7967	116.412	94.9605	4.90753	127.77	77.9109	-42.496	105.212	74.3423	-17.5894	128.228	84.2562	7.70208	140.062	61.3664	-31.3974	115.999	58.5199	-13.5495	137.817	74.502	10.6332	179.505	88.72	-7.55434	188.654	90.6255	28.3253	170.715	123.344	12.1221	
268	2.23333	135.385	137.177	37.1381	113.297	149.356	18.422	103.103	162.247	4.25475	93.0307	182.626	-0.429428	114.99	115.317	-46.8655	92.0162	99.335	-30.641	106.875	104.29	0.272761	125.127	93.6128	-48.8247	99.9121	82.4077	-30.7572	121.735	88.634	5.05541	129.839	75.0991	-42.7874	108.761	68.0528	-17.6482	128.412	79.6941	6.49469	145.158	56.6825	-31.8299	121.664	55.7271	-10.3543	141.349	69.6778	13.4756	179.004	92.2282	-6.52332	187.769	90.8367	31.7683	167.124	125.138	18.3121	
269	2.24167	130.123	130.496	33.2194	106.898	138.913	17.4052	91.2361	153.721	3.23106	78.3593	167.986	-0.450753	112.643	114.725	-44.8667	94.4252	88.9292	-31.2995	108.021	94.4784	-1.49561	126.481	93.9654	-48.1071	103.927	71.9636	-27.8746	123.478	83.99	5.28038	137.552	71.8877	-42.4209	113.69	60.6561	-20.8411	129.597	73.875	5.98605	150.333	53.7437	-32.0208	128.462	50.5554	-11.1255	145.772	66.7521	11.9235	180.59	96.1397	-5.78927	188.142	98.0939	28.9397	163.383	126.934	16.6074	
270	2.25	122.758	131.107	34.3271	98.6651	131.608	21.2715	83.7902	139.425	4.97705	67.6418	151.339	-1.97567	113.653	108.305	-45.9817	97.2267	81.8769	-32.0894	108.014	88.631	-1.31946	126.069	90.9245	-48.6522	107.027	67.6182	-30.807	120.741	83.6495	6.00118	138.32	70.0764	-42.0711	117.829	58.2142	-16.8679	135.696	74.128	7.6789	156.365	56.2477	-32.6991	134.666	46.6009	-13.0815	147.155	68.7027	8.31965	179.296	98.5664	-1.42248	186.613	103.668	33.6659	162.081	127.343	19.5256	
271	2.25833	117.992	124.276	35.7215	92.6103	121.8	21.1992	73.9539	129.822	7.99385	58.1772	138.246	-0.251944	111.041	105.74	-43.984	96.9316	77.4934	-33.8653	110.33	86.0072	0.781453	127.981	88.4315	-48.2552	110.999	62.3534	-31.7563	123.351	75.4435	3.34911	143.01	71.3135	-42.7179	126.339	51.5468	-18.8011	137.45	69.6841	6.54191	159.591	59.7881	-33.5942	140.222	47.0741	-12.1667	149.188	68.7317	9.02141	178.485	104.888	-5.62081	187.426	102.096	34.3463	156.371	129.029	19.1087	
272	2.26667	114.005	116.795	33.5761	90.9954	109.814	19.3245	70.3489	116.209	4.77222	51.5448	120.415	3.26263	107.544	102.725	-42.7393	100.415	69.9141	-34.9862	108.278	76.5711	-1.69516	129.536	82.9358	-50.3074	114.184	57.558	-30.5504	126.388	75.2165	5.33749	144.127	72.9072	-43.5016	130.659	48.0845	-19.0345	139.259	66.3566	5.08066	161.986	58.0851	-35.3332	146.151	45.1345	-13.5903	156.072	67.3507	9.06784	174.954	106.02	-4.29662	184.675	108.8	31.0639	154.363	124.503	19.0041	
273	2.275	111.216	109.901	37.8312	88.8724	100.129	18.9278	65.5119	102.212	11.1055	45.0846	106.555	7.46684	106.465	98.1646	-43.1226	99.915	65.4602	-36.3136	111.234	72.0834	-2.63617	130.075	84.3309	-49.559	117.18	54.0746	-30.1574	126.473	67.8458	2.97835	145.596	69.1078	-43.9762	135.56	47.4812	-21.6227	141.258	67.7925	6.07899	168.001	62.9016	-36.537	148.835	47.3742	-19.2007	154.163	65.0003	7.42216	172.128	111.209	-0.809663	179.561	109.902	29.812	146.892	124.401	16.8749	
274	2.28333	110.89	103.168	39.9339	88.9957	90.4675	24.1299	60.9973	92.2995	9.25646	43.7355	90.3879	5.78592	102.02	90.7243	-43.4288	103.586	60.0391	-35.5951	108.219	66.7464	-1.20451	125.355	80.2704	-49.3718	120.745	51.3067	-31.1352	126.399	65.9891	4.66322	146.392	67.3036	-45.6759	136.479	47.1551	-25.7218	145.688	64.3145	5.33928	171.022	65.9523	-37.0178	154.694	45.6339	-18.2681	159.293	64.6125	7.27216	168.958	113.977	-2.49138	181.657	112.515	34.3507	143.61	121.591	18.8621	
275	2.29167	108.831	98.7683	37.4536	83.8272	84.6216	23.2238	64.938	82.4433	7.49545	42.8195	80.1017	7.05471	105.136	90.5784	-42.4812	103.21	56.2038	-34.9913	110.028	65.9148	0.839319	129.488	80.0888	-49.8543	122.151	49.6182	-32.0788	129.637	61.7514	1.46296	149.786	72.2047	-45.166	142.856	45.0207	-24.384	144.337	61.0397	3.51449	168.652	64.0709	-37.8968	154.809	48.7424	-18.2702	157.774	65.3587	7.59383	169.359	111.488	-6.29064	175.542	114.042	33.2142	141.818	119.372	20.9205	
276	2.3	109.533	94.9859	39.6488	85.4333	78.5426	24.8332	62.8547	74.5084	12.4901	43.0947	70.2994	7.18407	104.135	88.626	-42.4573	107.617	54.5817	-37.1935	111.074	62.7552	0.165122	126.79	81.2233	-47.8812	124.302	47.2224	-32.039	132.239	59.0171	1.52311	146.382	67.0515	-45.1288	141.045	43.8561	-21.6877	146.481	59.0093	3.6763	166.229	66.0828	-37.7499	155.601	48.417	-17.7288	158.554	65.8418	8.69697	165.899	111.263	-5.34749	178.168	110.758	33.4735	140.375	118.253	19.4869	
